<?xml version="1.0" standalone="no"?>
<!DOCTYPE svg PUBLIC "-//W3C//DTD SVG 20010904//EN"
 "http://www.w3.org/TR/2001/REC-SVG-20010904/DTD/svg10.dtd">
<svg version="1.0" xmlns="http://www.w3.org/2000/svg"
 width="500.000000pt" height="500.000000pt" viewBox="0 0 500.000000 500.000000"
 preserveAspectRatio="xMidYMid meet">

<g transform="translate(0.000000,500.000000) scale(0.100000,-0.100000)"
fill="#000000" stroke="none">
<path d="M2537 3053 c-9 -9 -9 -43 1 -43 18 1 34 19 29 34 -7 17 -19 21 -30 9z"/>
<path d="M2104 2967 c-5 -13 19 -251 32 -318 5 -25 13 -29 164 -67 l159 -39
101 134 c60 80 99 141 96 149 -15 39 -39 25 -150 -85 -108 -106 -115 -111
-155 -111 -50 0 -96 21 -113 53 -7 12 -28 83 -48 157 -31 120 -38 135 -58 138
-13 2 -24 -3 -28 -11z"/>
<path d="M2576 2954 c-9 -22 -8 -23 14 -17 11 3 20 12 20 19 0 19 -26 18 -34
-2z"/>
<path d="M2470 2935 c-10 -12 -10 -15 4 -15 9 0 16 7 16 15 0 8 -2 15 -4 15
-2 0 -9 -7 -16 -15z"/>
<path d="M3393 2894 c-88 -46 -556 -359 -697 -466 -128 -97 -153 -126 -137
-156 10 -19 94 -56 204 -92 20 -6 37 -12 37 -13 0 -1 -44 -150 -98 -332 l-98
-330 60 -35 c57 -33 66 -35 151 -35 84 0 95 2 155 35 61 33 71 35 155 35 84
-1 94 -3 160 -38 61 -32 79 -37 138 -37 37 0 82 6 100 14 l32 13 53 243 c29
134 54 246 57 248 2 3 69 -5 148 -18 245 -38 248 -20 70 350 -126 262 -305
602 -330 628 -32 32 -79 28 -160 -14z m-573 -1184 c28 -28 25 -64 -6 -89 -32
-26 -46 -26 -72 -3 -31 27 -35 55 -11 85 25 32 61 35 89 7z m658 -126 c34 -23
27 -83 -10 -104 -25 -13 -31 -13 -55 0 -58 32 -35 115 32 119 6 1 21 -6 33
-15z"/>
<path d="M2285 2815 c-52 -51 -15 -135 60 -135 46 0 85 36 85 80 0 71 -94 107
-145 55z"/>
<path d="M2092 2593 c-21 -8 -43 -61 -36 -87 3 -14 13 -31 22 -40 10 -8 91
-33 181 -56 162 -40 166 -41 207 -25 47 18 112 83 142 142 l20 39 -73 -25 -74
-24 -165 42 c-160 40 -197 45 -224 34z"/>
<path d="M500 2437 c0 -7 7 -22 15 -33 20 -26 19 -30 -16 -54 l-30 -22 -23 21
c-52 49 -97 9 -181 -162 -79 -162 -109 -281 -110 -432 0 -115 2 -124 35 -205
31 -76 39 -87 75 -105 28 -14 61 -20 110 -20 62 0 82 5 155 40 75 35 94 40
155 40 51 -1 83 -7 113 -22 23 -11 39 -15 35 -9 -4 6 -35 55 -70 109 -35 54
-63 109 -63 122 0 29 17 32 220 40 l145 7 79 -124 78 -123 69 0 c66 0 68 1 56
20 -127 202 -215 327 -234 331 -29 8 -73 -20 -73 -45 0 -16 -14 -19 -146 -25
-81 -4 -149 -5 -152 -2 -2 3 3 17 12 31 9 14 15 34 11 44 -7 24 58 62 77 43
14 -14 38 -16 38 -3 0 6 -79 132 -176 280 -158 242 -204 301 -204 258z m85
-142 c19 -30 35 -58 35 -64 0 -5 -14 -18 -32 -29 l-32 -21 -38 57 c-21 31 -38
60 -38 64 0 5 59 47 68 48 1 0 18 -25 37 -55z m99 -150 c20 -30 36 -57 36 -59
0 -6 -71 -49 -73 -45 -2 2 -19 30 -40 61 l-36 57 27 20 c15 11 32 21 38 21 6
0 28 -25 48 -55z m90 -140 c20 -30 36 -58 36 -63 0 -7 -52 -42 -64 -42 -3 0
-23 25 -43 56 l-37 56 29 24 c17 13 33 24 36 24 3 0 23 -25 43 -55z"/>
<path d="M2126 2411 c12 -11 225 -63 232 -56 9 8 2 11 -110 38 -115 29 -138
32 -122 18z"/>
<path d="M2027 2372 c-20 -22 -22 -71 -4 -96 13 -18 295 -95 350 -96 57 0 89
78 49 118 -21 21 -289 92 -345 92 -20 0 -41 -7 -50 -18z"/>
<path d="M4280 2250 c0 -5 4 -10 9 -10 18 0 43 -70 35 -103 -19 -89 -67 -141
-176 -191 -42 -19 -95 -51 -117 -71 -78 -71 -132 -185 -146 -313 -9 -76 5
-103 63 -120 48 -14 151 -16 186 -2 26 9 26 11 26 120 0 143 12 174 95 240 72
58 106 99 140 172 45 97 25 218 -45 268 -30 21 -70 27 -70 10z"/>
<path d="M2083 2217 c4 -14 210 -67 221 -57 5 5 -9 13 -30 19 -155 40 -195 48
-191 38z"/>
<path d="M1974 2186 c-44 -19 -71 -59 -85 -124 -15 -75 6 -184 58 -295 35 -76
38 -87 38 -172 l0 -92 75 -36 c66 -32 86 -37 148 -37 l72 0 0 68 c0 79 -21
176 -51 234 l-21 42 -14 -32 c-22 -54 -96 -52 -110 4 -5 20 -8 22 -18 10 -20
-25 -51 -28 -79 -5 -33 25 -33 34 -1 164 19 75 31 105 41 105 9 0 59 -12 112
-26 166 -46 251 -34 251 36 0 65 -51 94 -247 141 -140 33 -129 32 -169 15z"/>
<path d="M2025 1996 c-10 -30 -45 -195 -45 -209 0 -23 36 -40 58 -28 15 8 82
185 82 217 0 16 -91 35 -95 20z"/>
<path d="M1740 1974 c0 -6 -23 -46 -51 -89 -28 -43 -63 -105 -76 -139 -31 -75
-40 -189 -21 -261 11 -43 17 -50 40 -53 25 -3 128 34 128 46 0 3 -12 30 -27
61 -37 75 -37 167 1 265 27 70 33 139 16 166 -5 8 -10 10 -10 4z"/>
<path d="M2122 1877 c-26 -122 -27 -131 -7 -147 11 -9 22 -10 38 -3 21 10 40
59 84 214 4 12 -5 18 -32 23 -20 4 -42 9 -48 12 -8 3 -20 -30 -35 -99z"/>
<path d="M4600 1813 c-23 -9 -60 -45 -76 -75 -7 -14 -19 -59 -25 -100 -6 -40
-17 -88 -25 -107 -8 -18 -12 -36 -10 -40 8 -12 92 -51 116 -53 22 -3 25 2 31
42 4 25 3 76 -3 115 -12 81 -5 158 17 191 8 13 15 26 15 29 0 6 -20 5 -40 -2z"/>
<path d="M958 1589 c-55 -35 -66 -60 -44 -94 22 -34 52 -31 114 10 56 38 67
69 36 99 -22 23 -53 19 -106 -15z"/>
<path d="M7 1463 c-4 -3 -7 -323 -7 -710 l0 -703 2500 0 2500 0 0 711 0 711
-62 -4 c-47 -3 -82 -14 -137 -41 -67 -33 -83 -37 -152 -37 -70 0 -84 3 -146
37 -63 35 -74 37 -153 38 -79 0 -91 -3 -160 -37 -67 -34 -84 -38 -150 -38 -66
0 -83 4 -150 38 -68 33 -83 37 -155 37 -72 0 -87 -4 -155 -37 -67 -34 -84 -38
-150 -38 -66 0 -83 4 -150 38 -68 33 -83 37 -155 37 -72 0 -87 -4 -155 -37
-67 -34 -84 -38 -150 -38 -66 0 -83 4 -150 38 -69 34 -81 37 -160 37 -79 -1
-90 -3 -153 -38 -62 -34 -76 -37 -146 -37 -69 0 -85 4 -152 38 -68 34 -80 37
-159 37 -78 -1 -91 -4 -156 -38 -64 -33 -79 -37 -146 -37 -66 0 -83 4 -149 38
-68 34 -80 37 -159 37 -78 -1 -91 -4 -156 -38 -63 -33 -80 -37 -144 -37 -65 0
-84 5 -163 41 -84 39 -93 41 -161 37 -55 -4 -88 -14 -146 -42 -64 -31 -84 -36
-145 -36 -61 0 -81 6 -155 40 -70 33 -96 40 -146 40 -33 0 -64 -3 -67 -7z"/>
</g>
</svg>
